<svg width="133" height="149" viewBox="0 0 133 149" fill="none" xmlns="http://www.w3.org/2000/svg">
<path d="M85.5625 88C85.5625 100.542 82.9167 109.979 77.625 116.312C72.3333 122.604 63.25 125.75 50.375 125.75C38.1667 125.75 29.4583 122.833 24.25 117C19.0417 111.167 16.4375 102.146 16.4375 89.9375V45.125L5.5625 42.5625V35.5625L42.0625 34.875V42.5625L29.875 45.125V89.9375C29.875 96.3542 30.6042 101.354 32.0625 104.938C33.5208 108.521 35.7708 111.083 38.8125 112.625C41.8958 114.125 45.9583 114.875 51 114.875C56.375 114.875 60.5625 114.021 63.5625 112.312C66.6042 110.604 68.7917 107.812 70.125 103.938C71.4583 100.062 72.125 94.75 72.125 88V45.125L59.9375 42.5625V35.5625L96.4375 34.875V42.5625L85.5625 45.125V88Z" fill="#02833B"/>
<mask id="mask0_5_246" style="mask-type:luminance" maskUnits="userSpaceOnUse" x="2" y="31" width="98" height="99">
<path d="M100 31.5H2V129.5H100V31.5Z" fill="white"/>
<path d="M85.5625 88C85.5625 100.542 82.9167 109.979 77.625 116.312C72.3333 122.604 63.25 125.75 50.375 125.75C38.1667 125.75 29.4583 122.833 24.25 117C19.0417 111.167 16.4375 102.146 16.4375 89.9375V45.125L5.5625 42.5625V35.5625L42.0625 34.875V42.5625L29.875 45.125V89.9375C29.875 96.3542 30.6042 101.354 32.0625 104.938C33.5208 108.521 35.7708 111.083 38.8125 112.625C41.8958 114.125 45.9583 114.875 51 114.875C56.375 114.875 60.5625 114.021 63.5625 112.312C66.6042 110.604 68.7917 107.812 70.125 103.938C71.4583 100.062 72.125 94.75 72.125 88V45.125L59.9375 42.5625V35.5625L96.4375 34.875V42.5625L85.5625 45.125V88Z" fill="black"/>
</mask>
<g mask="url(#mask0_5_246)">
<path d="M77.625 116.312L79.9209 118.244L79.9272 118.236L77.625 116.312ZM16.4375 45.125H19.4375V42.7497L17.1256 42.205L16.4375 45.125ZM5.5625 42.5625H2.5625V44.9378L4.87445 45.4825L5.5625 42.5625ZM5.5625 35.5625L5.506 32.563L2.5625 32.6185V35.5625H5.5625ZM42.0625 34.875H45.0625V31.818L42.006 31.8755L42.0625 34.875ZM42.0625 42.5625L42.6798 45.4983L45.0625 44.9973V42.5625H42.0625ZM29.875 45.125L29.2577 42.1892L26.875 42.6902V45.125H29.875ZM38.8125 112.625L37.4562 115.301L37.4781 115.312L37.5001 115.323L38.8125 112.625ZM63.5625 112.312L62.0934 109.697L62.0857 109.701L62.078 109.706L63.5625 112.312ZM72.125 45.125H75.125V42.6902L72.7423 42.1892L72.125 45.125ZM59.9375 42.5625H56.9375V44.9973L59.3202 45.4983L59.9375 42.5625ZM59.9375 35.5625L59.881 32.563L56.9375 32.6185V35.5625H59.9375ZM96.4375 34.875H99.4375V31.818L96.381 31.8755L96.4375 34.875ZM96.4375 42.5625L97.1256 45.4825L99.4375 44.9378V42.5625H96.4375ZM85.5625 45.125L84.8744 42.205L82.5625 42.7497V45.125H85.5625ZM85.5625 88H82.5625C82.5625 100.189 79.9811 108.814 75.3228 114.389L77.625 116.312L79.9272 118.236C85.8523 111.145 88.5625 100.895 88.5625 88H85.5625ZM77.625 116.312L75.3291 114.381C70.8657 119.688 62.8649 122.75 50.375 122.75V125.75V128.75C63.6351 128.75 73.801 125.52 79.9209 118.244L77.625 116.312ZM50.375 125.75V122.75C38.5466 122.75 30.8731 119.914 26.4878 115.002L24.25 117L22.0122 118.998C28.0435 125.753 37.7867 128.75 50.375 128.75V125.75ZM24.25 117L26.4878 115.002C21.9819 109.955 19.4375 101.804 19.4375 89.9375H16.4375H13.4375C13.4375 102.487 16.1015 112.378 22.0122 118.998L24.25 117ZM16.4375 89.9375H19.4375V45.125H16.4375H13.4375V89.9375H16.4375ZM16.4375 45.125L17.1256 42.205L6.25055 39.6425L5.5625 42.5625L4.87445 45.4825L15.7494 48.045L16.4375 45.125ZM5.5625 42.5625H8.5625V35.5625H5.5625H2.5625V42.5625H5.5625ZM5.5625 35.5625L5.619 38.562L42.119 37.8745L42.0625 34.875L42.006 31.8755L5.506 32.563L5.5625 35.5625ZM42.0625 34.875H39.0625V42.5625H42.0625H45.0625V34.875H42.0625ZM42.0625 42.5625L41.4452 39.6267L29.2577 42.1892L29.875 45.125L30.4923 48.0608L42.6798 45.4983L42.0625 42.5625ZM29.875 45.125H26.875V89.9375H29.875H32.875V45.125H29.875ZM29.875 89.9375H26.875C26.875 96.5201 27.6141 101.966 29.2838 106.068L32.0625 104.938L34.8412 103.807C33.5942 100.743 32.875 96.1882 32.875 89.9375H29.875ZM32.0625 104.938L29.2838 106.068C30.9756 110.225 33.6829 113.388 37.4562 115.301L38.8125 112.625L40.1688 109.949C37.8588 108.778 36.0661 106.816 34.8412 103.807L32.0625 104.938ZM38.8125 112.625L37.5001 115.323C41.1387 117.093 45.7006 117.875 51 117.875V114.875V111.875C46.2161 111.875 42.653 111.157 40.1249 109.927L38.8125 112.625ZM51 114.875V117.875C56.6314 117.875 61.4102 116.99 65.047 114.919L63.5625 112.312L62.078 109.706C59.7148 111.051 56.1186 111.875 51 111.875V114.875ZM63.5625 112.312L65.0316 114.928C68.8243 112.798 71.4333 109.356 72.9618 104.914L70.125 103.938L67.2882 102.961C66.15 106.269 64.384 108.41 62.0934 109.697L63.5625 112.312ZM70.125 103.938L72.9618 104.914C74.4505 100.587 75.125 94.8962 75.125 88H72.125H69.125C69.125 94.6038 68.4662 99.538 67.2882 102.961L70.125 103.938ZM72.125 88H75.125V45.125H72.125H69.125V88H72.125ZM72.125 45.125L72.7423 42.1892L60.5548 39.6267L59.9375 42.5625L59.3202 45.4983L71.5077 48.0608L72.125 45.125ZM59.9375 42.5625H62.9375V35.5625H59.9375H56.9375V42.5625H59.9375ZM59.9375 35.5625L59.994 38.562L96.494 37.8745L96.4375 34.875L96.381 31.8755L59.881 32.563L59.9375 35.5625ZM96.4375 34.875H93.4375V42.5625H96.4375H99.4375V34.875H96.4375ZM96.4375 42.5625L95.7494 39.6425L84.8744 42.205L85.5625 45.125L86.2506 48.045L97.1256 45.4825L96.4375 42.5625ZM85.5625 45.125H82.5625V88H85.5625H88.5625V45.125H85.5625Z" fill="#02833B"/>
</g>
<path d="M96.3629 22.2613H77.7186C82.5701 6.4184 77.8241 7.25334 95.7875 9.66511C99.1132 10.1116 100.112 9.79786 105.11 12.373C109.368 14.5672 114.706 15.5227 117.539 18.3303L106.203 39C107.757 28.1686 110.346 22.2613 96.3629 22.2613Z" fill="#02833B" stroke="#02833B"/>
<path d="M73.5134 5.87413C75.585 5.44087 95.0924 2.44419 104.587 1L131.004 15.0808C92.8137 24.0357 106.562 19.0945 104.587 17.7887C77.6566 8.58198 70.9239 6.4157 73.5134 5.87413Z" fill="#02833B" stroke="#02833B"/>
</svg>
