<svg width="50" height="38" viewBox="0 0 50 38" fill="none" xmlns="http://www.w3.org/2000/svg">
<ellipse cx="20.0449" cy="18.9941" rx="20.0449" ry="18.9941" fill="#EBEBEB"/>
<ellipse cx="13.9833" cy="14.0768" rx="1.79602" ry="3.02105" fill="black"/>
<ellipse cx="26.1066" cy="14.0768" rx="1.79602" ry="3.02105" fill="black"/>
<path d="M27.3894 12.6389C27.604 13.3712 27.5161 14.0419 27.1932 14.1369C26.8703 14.2319 27.1966 13.6921 26.982 12.9597C26.7674 12.2274 26.0933 11.58 26.4162 11.4849C26.7391 11.3899 27.1748 11.9066 27.3894 12.6389Z" fill="white"/>
<path d="M15.0739 12.8317C15.2885 13.564 15.2007 14.2347 14.8778 14.3297C14.5549 14.4248 14.8812 13.8849 14.6666 13.1526C14.452 12.4202 13.7778 11.7728 14.1007 11.6778C14.4236 11.5827 14.8594 12.0994 15.0739 12.8317Z" fill="white"/>
<path d="M28.8326 28.1536C28.8326 32.4668 25.4263 36.9597 20.077 36.9597C14.7278 36.9597 11.4497 32.4668 11.4497 28.1536C11.4497 23.8404 14.7278 21.3402 20.077 21.3402C25.4263 21.3402 28.8326 23.8404 28.8326 28.1536Z" fill="black"/>
<ellipse cx="20.0768" cy="29.857" rx="9.68569" ry="7.80974" fill="#EBEBEB"/>
<path d="M36.0305 36.3148C36.2871 34.0522 35.7739 32.4582 35.4853 31.9439C31.7906 31.764 30.7173 31.1833 30.6424 30.9155C29.9689 31.3333 27.4994 21.3381 31.7329 18.9598C35.1197 17.0572 39.7081 19.4526 41.5789 20.8882C42.9644 23.3307 42.1562 25.5483 41.5789 26.3518L40.5206 31.3654C41.1363 32.8567 40.9268 35.6292 40.7451 36.829C40.9054 37.7611 35.7098 39.143 36.0305 36.3148Z" fill="#E11717" fill-opacity="0.921569"/>
<path d="M35.8884 32.8137L35.5997 32.0103L36.3695 31.7853C36.8933 31.6139 37.9859 31.2775 38.1655 31.3032C38.3451 31.3289 38.5183 30.9925 38.5824 30.8211L38.7749 30.0819V28.9892L38.1655 28.3786L37.1713 28.25L34.4772 28.0893L37.4599 27.8643L38.7749 27.4465L39.1276 26.868L39.288 26.2574V25.5182L38.9673 24.9076C38.7749 24.7255 38.3708 24.3484 38.2938 24.2969C38.2168 24.2455 34.798 24.1684 33.0981 24.1362L38.1655 24.0398L38.7749 23.7827L39.1276 23.2364L39.288 22.2722L39.1276 21.4687L38.9673 21.0188L38.4862 20.8581C37.7486 20.7509 36.254 20.5238 36.177 20.4724C36.1001 20.421 34.7124 20.1939 34.0282 20.0867L33.3868 19.7011L33.5151 19.444L37.1713 19.9582C40.7633 20.7295 39.8653 21.0188 40.2822 21.758C40.6158 22.3493 39.6515 23.5256 39.1276 24.0398C40.2502 24.2969 40.2822 25.6789 40.0898 26.7395C39.9421 27.5536 39.1519 27.97 38.8651 28.076C39.0257 28.0955 39.2852 28.2735 39.4163 28.3786C40.3784 30.8854 39.0956 32.1709 38.8711 32.2674C38.6915 32.3445 36.8078 32.6637 35.8884 32.8137Z" fill="#730808"/>
</svg>
