<svg width="70" height="54" viewBox="0 0 70 54" fill="none" xmlns="http://www.w3.org/2000/svg">
<path d="M28.0625 0.25C43.4369 0.25 55.876 12.0126 55.876 26.4922C55.8757 40.9715 43.4367 52.7334 28.0625 52.7334C12.6884 52.7332 0.250255 40.9714 0.25 26.4922C0.25 12.0128 12.6883 0.250184 28.0625 0.25Z" fill="#E11717" stroke="black" stroke-width="0.5"/>
<ellipse cx="19.5767" cy="19.6335" rx="2.51443" ry="4.21358" fill="black"/>
<ellipse cx="36.5491" cy="19.6335" rx="2.51443" ry="4.21358" fill="black"/>
<path d="M38.3451 17.628C38.6455 18.6494 38.5226 19.5848 38.0705 19.7173C37.6184 19.8498 38.0752 19.0969 37.7748 18.0755C37.4744 17.054 36.5306 16.151 36.9826 16.0185C37.4347 15.886 38.0447 16.6066 38.3451 17.628Z" fill="white"/>
<path d="M21.1034 17.8969C21.4038 18.9183 21.2809 19.8537 20.8288 19.9862C20.3768 20.1188 20.8335 19.3658 20.5331 18.3444C20.2327 17.323 19.2889 16.4199 19.7409 16.2874C20.193 16.1549 20.803 16.8755 21.1034 17.8969Z" fill="white"/>
<path d="M40.3657 39.267C40.3657 45.2828 35.5968 51.5491 28.1078 51.5491C20.6188 51.5491 16.0295 45.2828 16.0295 39.267C16.0295 33.2512 20.6188 29.764 28.1078 29.764C35.5968 29.764 40.3657 33.2512 40.3657 39.267Z" fill="black"/>
<ellipse cx="28.1078" cy="41.6427" rx="13.56" ry="10.8925" fill="#E11717"/>
<path d="M50.4426 50.6497C50.8018 47.494 50.0834 45.2707 49.6793 44.5535C44.5067 44.3024 43.004 43.4926 42.8993 43.119C41.9564 43.7018 38.499 29.7611 44.4259 26.444C49.1674 23.7904 55.5912 27.1314 58.2104 29.1336C60.1501 32.5403 59.0186 35.6332 58.2104 36.7539L56.7287 43.7466C57.5907 45.8265 57.2974 49.6934 57.043 51.3669C57.2675 52.6668 49.9936 54.5943 50.4426 50.6497Z" fill="white"/>
<path d="M49.6793 44.5535C50.0834 45.2707 50.8018 47.494 50.4426 50.6497C49.9936 54.5943 57.2675 52.6668 57.043 51.3669C57.2974 49.6934 57.5907 45.8265 56.7287 43.7466L58.2104 36.7539C59.0186 35.6332 60.1501 32.5403 58.2104 29.1336C55.5912 27.1314 49.1674 23.7904 44.4259 26.444C38.499 29.7611 41.9564 43.7018 42.8993 43.119C43.004 43.4926 44.5067 44.3024 49.6793 44.5535ZM49.6793 44.5535C50.9664 44.3891 53.6395 43.8721 54.0346 43.119C54.5285 42.1777 54.4836 40.0261 53.4509 39.6675C52.4182 39.3089 45.0994 38.9503 45.279 39.3089C45.2042 39.1894 46.1321 38.9682 50.4426 39.0399C51.5801 38.9652 53.9358 38.6903 54.2591 38.1883C54.9925 37.2619 55.8576 35.1132 53.4509 33.9299L46.2668 33.7506L45.728 33.5713H53.0917C53.4808 33.4966 54.3399 33.2037 54.6632 32.6299C55.0673 31.9127 55.2918 29.4473 54.0346 29.1336C52.7774 28.8198 48.3322 28.4164 47.8383 28.0577C47.3444 27.6991 46.3117 27.6991 46.9403 27.0716" stroke="black" stroke-width="0.5"/>
<path d="M50.2438 45.7666L49.8396 44.6459L50.9173 44.3322C51.6506 44.0931 53.1803 43.6239 53.4317 43.6598C53.6831 43.6957 53.9256 43.2265 54.0154 42.9874L54.2848 41.9564V40.4324L53.4317 39.5807L52.0398 39.4014L48.2681 39.1773L52.4439 38.8635L54.2848 38.2808L54.7787 37.4739L55.0032 36.6222V35.5912L54.5542 34.7396C54.2848 34.4856 53.7191 33.9596 53.6113 33.8879C53.5035 33.8162 48.7171 33.7086 46.3374 33.6638L53.4317 33.5293L54.2848 33.1707L54.7787 32.4086L55.0032 31.0639L54.7787 29.9433L54.5542 29.3157L53.8807 29.0916C52.848 28.9422 50.7556 28.6254 50.6479 28.5537C50.5401 28.482 48.5974 28.1652 47.6395 28.0158L46.7415 27.4779L46.9211 27.1193L52.0398 27.8365C57.0686 28.9123 55.8114 29.3157 56.3951 30.3467C56.8621 31.1715 55.5121 32.8121 54.7787 33.5293C56.3502 33.8879 56.3951 35.8154 56.1257 37.2946C55.9189 38.43 54.8127 39.0108 54.4112 39.1587C54.6359 39.1858 54.9993 39.4342 55.1828 39.5807C56.5298 43.0771 54.7338 44.8701 54.4195 45.0045C54.1681 45.1121 51.5309 45.5574 50.2438 45.7666Z" fill="#939393"/>
<path d="M49.8396 44.6459L50.2438 45.7666C51.5309 45.5574 54.1681 45.1121 54.4195 45.0045C54.7338 44.8701 56.5298 43.0771 55.1828 39.5807C54.9583 39.4014 54.4644 39.0697 54.2848 39.1773C54.0603 39.3117 55.8563 38.7738 56.1257 37.2946C56.3951 35.8154 56.3502 33.8879 54.7787 33.5293C55.5121 32.8121 56.8621 31.1715 56.3951 30.3467C55.8114 29.3157 57.0686 28.9123 52.0398 27.8365L46.9211 27.1193L46.7415 27.4779L47.6395 28.0158C48.5974 28.1652 50.5401 28.482 50.6479 28.5537C50.7556 28.6254 52.848 28.9422 53.8807 29.0916L54.5542 29.3157L54.7787 29.9433L55.0032 31.0639L54.7787 32.4086L54.2848 33.1707L53.4317 33.5293L46.3374 33.6638C48.7171 33.7086 53.5035 33.8162 53.6113 33.8879C53.7191 33.9596 54.2848 34.4856 54.5542 34.7396L55.0032 35.5912V36.6222L54.7787 37.4739L54.2848 38.2808L52.4439 38.8635L48.2681 39.1773L52.0398 39.4014L53.4317 39.5807L54.2848 40.4324V41.9564L54.0154 42.9874C53.9256 43.2265 53.6831 43.6957 53.4317 43.6598C53.1803 43.6239 51.6506 44.0931 50.9173 44.3322L49.8396 44.6459Z" stroke="black" stroke-width="0.5"/>
</svg>
